<svg width="16" height="16" viewBox="0 0 16 16" fill="none" xmlns="http://www.w3.org/2000/svg">
<g clip-path="url(#clip0)">
<path d="M10.9994 0C10.1464 0.0589997 9.14942 0.604996 8.56843 1.31599C8.03843 1.96099 7.60243 2.91898 7.77243 3.84998C8.70443 3.87898 9.66742 3.31998 10.2254 2.59698C10.7474 1.92399 11.1424 0.971994 10.9994 0Z" fill="white"/>
<path d="M14.3703 5.36799C13.5513 4.34099 12.4003 3.745 11.3133 3.745C9.87832 3.745 9.27133 4.43199 8.27433 4.43199C7.24634 4.43199 6.46534 3.747 5.22435 3.747C4.00536 3.747 2.70736 4.49199 1.88437 5.76598C0.727376 7.55997 0.925375 10.933 2.80036 13.8059C3.47136 14.8339 4.36735 15.9899 5.53935 15.9999C6.58234 16.0099 6.87634 15.3309 8.28933 15.3239C9.70232 15.3159 9.97032 16.0089 11.0113 15.9979C12.1843 15.9889 13.1293 14.7079 13.8003 13.6799C14.2813 12.9429 14.4603 12.5719 14.8333 11.7399C12.1203 10.707 11.6853 6.84898 14.3703 5.36799Z" fill="white"/>
</g>
<defs>
<clipPath id="clip0">
<rect width="16" height="16" fill="white"/>
</clipPath>
</defs>
</svg>
